<?xml version="1.0" ?>
<!-- Uploaded to: SVG Repo, www.svgrepo.com, Generator: SVG Repo Mixer Tools -->
<svg width="800px" height="800px" viewBox="0 0 500 500" id="Layer_1" version="1.1" xml:space="preserve" xmlns="http://www.w3.org/2000/svg" xmlns:xlink="http://www.w3.org/1999/xlink">
<style type="text/css">
	.st0{fill:#F26E91;}
	.st1{fill:#00A779;}
	.st2{fill:#C4FFC9;}
	.st3{fill:#AB630A;}
	.st4{fill:#C98C40;}
	.st5{fill:#15AA78;}
	.st6{fill:#FF9000;}
	.st7{fill:#FCEECF;}
	.st8{fill:#FFE940;}
	.st9{fill:#F0E3CE;}
	.st10{fill:#FFB5C5;}
	.st11{fill:#91EDFF;}
	.st12{fill:#7191F0;}
	.st13{fill:#363636;}
	.st14{fill:#565656;}
	.st15{fill:#F3DF4D;}
	.st16{fill:#CD4A77;}
	.st17{fill:#577AE6;}
	.st18{fill:#F4D100;}
</style>
<g id="waves">
<path class="st11" d="M443.05,348.77C393.75,337.61,327,350.4,327,350.4c-48.35,8.37-86.28-7.44-86.28-7.44   c35.84-19.53,37.16-63.5,37.15-70.18c0-0.29-0.01-0.57-0.01-0.86c0-40.84,33.11-73.94,73.94-73.94c24.44,0,46.11,11.86,59.57,30.13   c3.04,4.13-1.14,9.72-5.97,8c-4.69-1.67-9.77-2.54-15.06-2.44c-22.61,0.43-41.06,18.86-41.51,41.47   c-0.42,21.27,14.84,39.06,35.01,42.58c2.98,0.52,6.01,0.63,9.02,0.51C399.67,317.93,425.42,318.98,443.05,348.77z"/>
<path class="st12" d="M370.23,363.59c-76.34-17.28-179.69,2.52-179.69,2.52c-74.86,12.96-133.59-11.52-133.59-11.52   c55.49-30.23,57.54-98.32,57.52-108.67c-0.01-0.44-0.02-0.89-0.02-1.33c0-63.23,51.26-114.49,114.49-114.49   c37.84,0,71.39,18.36,92.23,46.66c4.71,6.39-1.77,15.05-9.24,12.38c-7.27-2.59-15.12-3.94-23.31-3.78   c-35.01,0.67-63.58,29.21-64.28,64.22c-0.66,32.94,22.98,60.48,54.21,65.93c4.61,0.8,9.3,0.98,13.97,0.78   C303.06,315.84,342.93,317.46,370.23,363.59z"/>
<path class="st12" d="M332.69,162.35c0,0-4.01-25.02,18.07-29.97c0,0,9.36-2.02,13.41,6.31c0,0,3.08,9.64-9.86,12.73   C354.31,151.41,338.52,153.11,332.69,162.35z"/>
<path class="st12" d="M363.62,148.87c0,0,4.15-14.76,17.53-11.88c0,0,5.65,1.26,5.77,6.87c0,0-0.76,6.08-8.65,4.49   C378.27,148.35,369.17,145.27,363.62,148.87z"/>
</g>
</svg>